<svg width="1410" height="982" viewBox="0 0 1410 982" fill="none" xmlns="http://www.w3.org/2000/svg">
<path d="M1410 -0.99999C1410 145.5 1410 198.5 1410 318.5L1180.62 609.255C1094.62 704.978 947.304 712.859 851.581 626.858C755.859 540.857 747.978 393.541 833.979 297.818L1094 -0.999975C1202.5 -0.999937 1250.5 -1.00003 1410 -0.99999Z" fill="#CFDAFF" fill-opacity="0.4"/>
<path d="M171.048 667.281C179.52 674.892 180.217 687.93 172.606 696.402L7.43866e-05 886.5C7.43866e-05 868.5 0.000239237 870.287 0.000112534 856.5C1.14441e-05 845.5 6.29425e-05 843 0 829.5L141.928 668.839C149.539 660.367 162.577 659.67 171.048 667.281Z" fill="#CFDAFF" fill-opacity="0.4"/>
<path d="M250.808 663.735C259.968 671.965 260.722 686.062 252.493 695.222L0.0986936 975C0.0986936 963.5 0.0986152 964.251 0.0986936 950.334C0.0987546 939.5 0.098671 928.5 0.0986144 911L219.321 665.419C227.551 656.259 241.648 655.505 250.808 663.735Z" fill="#CFDAFF" fill-opacity="0.4"/>
<path d="M240.23 766.333C249.733 774.871 250.516 789.497 241.978 799L74.5624 981.793C66.5624 981.793 61.889 981.793 48.226 981.793C32.7844 981.793 39.2843 981.793 20.726 981.793L207.562 768.08C216.101 758.577 230.726 757.794 240.23 766.333Z" fill="#CFDAFF" fill-opacity="0.4"/>
<path d="M957.031 246.96C966.534 255.498 967.317 270.124 958.778 279.627C958.778 279.627 779.5 492 777 488.5C774.5 485 773.5 451 773.5 448C773.5 445 776 423 776.5 420.5C776.999 418 924.839 244.936 924.363 248.708C932.901 239.204 947.527 238.422 957.031 246.96Z" fill="white"/>
<path d="M1083.1 215.96C1092.61 224.498 1093.39 239.124 1084.85 248.627C1084.85 248.627 801.579 562.885 801 562C800.421 561.115 791.335 542.246 790 539C788.666 535.754 783.5 519.5 783 516.5C782.5 513.5 1050.43 217.708 1050.43 217.708C1058.97 208.204 1073.6 207.422 1083.1 215.96Z" fill="white"/>
<path d="M1039.1 367.96C1048.61 376.498 1049.39 391.124 1040.85 400.627L843.5 619.5C824 603.5 834 612 825 602.5C816 588.5 824 599.5 814 584L1006.43 369.708C1014.97 360.204 1029.6 359.422 1039.1 367.96Z" fill="white"/>
<path d="M1032.1 478.96C1041.61 487.498 1042.39 502.124 1033.85 511.627L899.5 660.5C881.5 651 887.5 655 876.5 648C866 639.5 871 643.5 861.5 635.5L999.434 480.708C1007.97 471.204 1022.6 470.422 1032.1 478.96Z" fill="white"/>
</svg>
